#!OML:ASF H:\Male1\Project 1\Capture day 1\Session 1\Male1.ASF
:FULLY-SPECIFIED
:DEGREES
637
root 22.013 15.2769 -4.51598 354.017 88.3613 -5.36981
lowerback 1.92582 1.96662 -1.75159
upperback 2.85331 2.67513 -1.14489
thorax 1.82288 1.33613 -0.20146
lowerneck -8.46698 4.2047 9.5728
upperneck 15.9572 5.27735 -4.70062
head 6.63492 2.81894 -2.62962
rclavicle -3.37934e-014 1.55052e-014
rhumerus -32.95 -10.5993 -86.4673
rradius 31.1851
rwrist -19.1858
rhand -18.3555 -1.20488
rfingers 7.12502
rthumb 7.92724 -31.0362
lclavicle -3.37934e-014 1.55052e-014
lhumerus -28.8961 5.93899 84.0807
lradius 21.5709
lwrist -9.61871
lhand -18.138 12.9929
lfingers 7.12502
lthumb 8.13712 42.8163
rfemur -8.10569 19.2482 25.7649
rtibia 30.9491
rfoot -33.5834 -29.0155
rtoes -13.0136
lfemur -7.23126 -18.4783 -24.2675
ltibia 31.1258
lfoot -32.4265 29.2459
ltoes 5.06097
638
root 22.0103 15.2771 -4.51747 353.055 88.3204 -6.33481
lowerback 1.95618 2.01008 -1.74853
upperback 2.86475 2.73302 -1.14826
thorax 1.81749 1.36538 -0.20781
lowerneck -8.54315 4.19191 9.56222
upperneck 15.9517 5.24945 -4.68524
head 6.64372 2.80434 -2.62417
rclavicle -6.4605e-016 1.23246e-014
rhumerus -32.8697 -10.5469 -86.3894
rradius 31.2262
rwrist -18.7985
rhand -18.1146 -1.5529
rfingers 7.12502
rthumb 8.15974 -31.3754
lclavicle -6.4605e-016 1.23246e-014
lhumerus -28.7605 4.79438 84.3914
lradius 21.6624
lwrist -9.44258
lhand -17.9954 13.247
lfingers 7.12502
lthumb 8.27482 43.0649
rfemur -8.1434 19.2424 25.7825
rtibia 30.9583
rfoot -33.5356 -29.0113
rtoes -13.0359
lfemur -7.24078 -18.4685 -24.2306
ltibia 31.1109
lfoot -32.464 29.215
ltoes 4.83897
639
root 22.0074 15.2769 -4.51957 351.993 88.3153 -7.38728
lowerback 1.99109 2.04144 -1.73114
upperback 2.88568 2.77537 -1.15839
thorax 1.82045 1.38727 -0.228973
lowerneck -8.58067 4.19312 9.55008
upperneck 15.9126 5.24013 -4.64911
head 6.63593 2.80021 -2.6107
rclavicle 2.36554e-014 -1.07344e-014
rhumerus -32.7429 -10.6348 -86.2706
rradius 31.2049
rwrist -18.2659
rhand -17.6415 -1.78751
rfingers 7.12502
rthumb 8.61627 -31.5917
lclavicle 2.36554e-014 -1.07344e-014
lhumerus -28.6069 3.49364 84.7704
lradius 21.787
lwrist -9.20463
lhand -17.8411 13.5504
lfingers 7.12502
lthumb 8.42371 43.3624
rfemur -8.15913 19.1856 25.7965
rtibia 30.9531
rfoot -33.4901 -28.9798
rtoes -13.0105
lfemur -7.24498 -18.4947 -24.2065
ltibia 31.1125
lfoot -32.4972 29.2059
ltoes 4.52103
640
root 22.0043 15.2767 -4.52258 351.17 88.3639 -8.19097
lowerback 2.03864 2.05767 -1.70637
upperback 2.90719 2.79758 -1.17714
thorax 1.8179 1.39947 -0.26347
lowerneck -8.59674 4.19776 9.53016
upperneck 15.8576 5.23647 -4.60165
head 6.61923 2.79932 -2.59217
rclavicle 1.39149e-015 -4.77083e-015
rhumerus -32.5882 -10.9438 -86.074
rradius 31.1236
rwrist -17.6749
rhand -17.009 -1.73567
rfingers 7.12502
rthumb 9.2267 -31.5138
lclavicle 1.39149e-015 -4.77083e-015
lhumerus -28.4636 2.06589 85.2156
lradius 21.9548
lwrist -8.86632
lhand -17.7145 13.8528
lfingers 7.12502
lthumb 8.54588 43.6598
rfemur -8.16306 19.053 25.7867
rtibia 30.9471
rfoot -33.445 -28.9176
rtoes -12.9832
lfemur -7.24299 -18.5582 -24.2093
ltibia 31.1178
lfoot -32.5084 29.2151
ltoes 4.27864
641
root 22.0009 15.2764 -4.52636 350.475 88.4651 -8.85921
lowerback 2.10549 2.06071 -1.67302
upperback 2.92478 2.8018 -1.20069
thorax 1.80129 1.40304 -0.308444
lowerneck -8.62425 4.19316 9.49373
upperneck 15.8113 5.222 -4.55474
head 6.60603 2.79222 -2.57196
rclavicle -1.11319e-014 6.75868e-015
rhumerus -32.4338 -11.5185 -85.7801
rradius 31.0146
rwrist -17.1153
rhand -16.3229 -1.35322
rfingers 7.12502
rthumb 9.88862 -31.101
lclavicle -1.11319e-014 6.75868e-015
lhumerus -28.3397 0.563586 85.7184
lradius 22.1551
lwrist -8.41727
lhand -17.6743 14.0853
lfingers 7.12502
lthumb 8.58462 43.8907
rfemur -8.1601 18.8513 25.7559
rtibia 30.9488
rfoot -33.4038 -28.8284
rtoes -12.9601
lfemur -7.23365 -18.6456 -24.2329
ltibia 31.1184
lfoot -32.4872 29.2268
ltoes 4.1738
642
root 21.9969 15.2761 -4.53031 350.134 88.6175 -9.16924
lowerback 2.18115 2.0479 -1.65642
upperback 2.9445 2.7847 -1.22256
thorax 1.78119 1.39568 -0.342531
lowerneck -8.66579 4.17428 9.45265
upperneck 15.7607 5.19191 -4.53832
head 6.59324 2.77457 -2.56209
rclavicle 2.48481e-015 -1.66979e-014
rhumerus -32.2863 -12.3288 -85.4018
rradius 30.9082
rwrist -16.6779
rhand -15.7142 -0.72965
rfingers 7.12502
rthumb 10.4759 -30.4486
lclavicle 2.48481e-015 -1.66979e-014
lhumerus -28.2235 -0.936403 86.2611
lradius 22.3782
lwrist -7.89073
lhand -17.7353 14.218
lfingers 7.12502
lthumb 8.52576 44.0259
rfemur -8.15035 18.6117 25.7036
rtibia 30.9565
rfoot -33.3827 -28.7371
rtoes -12.901
lfemur -7.22384 -18.734 -24.2756
ltibia 31.1155
lfoot -32.4144 29.2233
ltoes 4.07633
643
root 21.9922 15.2759 -4.53378 349.63 88.8094 -9.64292
lowerback 2.26339 2.01886 -1.66337
upperback 2.96199 2.74529 -1.23377
thorax 1.7536 1.37658 -0.352697
lowerneck -8.62144 4.14305 9.5543
upperneck 15.6034 5.16222 -4.73135
head 6.54035 2.74842 -2.64476
rclavicle -1.20265e-014 1.39149e-014
rhumerus -32.16 -13.2751 -84.9808
rradius 30.833
rwrist -16.4448
rhand -15.3101 -0.0181595
rfingers 7.12502
rthumb 10.8657 -29.7171
lclavicle -1.20265e-014 1.39149e-014
lhumerus -28.1091 -2.35945 86.816
lradius 22.6167
lwrist -7.35619
lhand -17.8384 14.2846
lfingers 7.12502
lthumb 8.42625 44.0965
rfemur -8.13609 18.3793 25.6522
rtibia 30.9624
rfoot -33.3829 -28.6779
rtoes -12.8174
lfemur -7.22652 -18.8047 -24.3115
ltibia 31.1151
lfoot -32.2899 29.1854
ltoes 3.9328
644
root 21.9868 15.2762 -4.53645 347.926 89.0133 -11.3215
lowerback 2.33856 1.97801 -1.68838
upperback 2.97904 2.68964 -1.22683
thorax 1.72791 1.34869 -0.333756
lowerneck -8.48248 4.10426 9.82041
upperneck 15.3269 5.13979 -5.15638
head 6.44351 2.71688 -2.83007
rclavicle -2.21148e-014 1.23246e-014
rhumerus -32.0413 -14.2119 -84.5765
rradius 30.7926
rwrist -16.4631
rhand -15.1973 0.639898
rfingers 7.12502
rthumb 10.9745 -29.0533
lclavicle -2.21148e-014 1.23246e-014
lhumerus -27.9741 -3.65178 87.3605
lradius 22.8499
lwrist -6.85731
lhand -17.9556 14.3034
lfingers 7.12502
lthumb 8.31322 44.1198
rfemur -8.12105 18.1939 25.6265
rtibia 30.9597
rfoot -33.4103 -28.6681
rtoes -12.7271
lfemur -7.25098 -18.8327 -24.3126
ltibia 31.1215
lfoot -32.1224 29.1013
ltoes 3.83999
645
root 21.9814 15.2768 -4.53842 343.756 89.2026 -15.4761
lowerback 2.39949 1.93471 -1.71583
upperback 2.99211 2.63045 -1.20497
thorax 1.70535 1.31865 -0.297582
lowerneck -8.24163 4.06206 10.2372
upperneck 14.9314 5.12774 -5.78267
head 6.3009 2.68412 -3.10533
rclavicle 4.75095e-014 -3.29983e-014
rhumerus -31.9205 -15.0243 -84.2358
rradius 30.7698
rwrist -16.7142
rhand -15.4042 1.13317
rfingers 7.12502
rthumb 10.7749 -28.5705
lclavicle 4.75095e-014 -3.29983e-014
lhumerus -27.8125 -4.80203 87.8803
lradius 23.0682
lwrist -6.41672
lhand -18.0846 14.2554
lfingers 7.12502
lthumb 8.18872 44.0767
rfemur -8.10839 18.0795 25.637
rtibia 30.9459
rfoot -33.4584 -28.7158
rtoes -12.6089
lfemur -7.29845 -18.8108 -24.2691
ltibia 31.1355
lfoot -31.9269 28.9801
ltoes 3.93906
646
root 21.9766 15.2778 -4.54001 336.454 89.3574 -22.7736
lowerback 2.44385 1.89668 -1.74292
upperback 2.99162 2.57782 -1.17627
thorax 1.67785 1.29167 -0.254265
lowerneck -7.91127 4.01673 10.7512
upperneck 14.4609 5.12195 -6.52716
head 6.12533 2.65318 -3.43488
rclavicle -7.45443e-015 -3.57812e-015
rhumerus -31.8052 -15.6365 -83.9802
rradius 30.7485
rwrist -17.1172
rhand -15.9067 1.23016
rfingers 7.12502
rthumb 10.2901 -28.4981
lclavicle -7.45443e-015 -3.57812e-015
lhumerus -27.6445 -5.80999 88.3677
lradius 23.2817
lwrist -6.04448
lhand -18.2063 14.1607
lfingers 7.12502
lthumb 8.0712 43.9866
rfemur -8.10078 18.035 25.6715
rtibia 30.9238
rfoot -33.5214 -28.8043
rtoes -12.5178
lfemur -7.36152 -18.7566 -24.1977
ltibia 31.1544
lfoot -31.7351 28.8439
ltoes 4.19967
647
root 21.973 15.2788 -4.54201 327.339 89.4777 -31.8893
lowerback 2.43654 1.8642 -1.78408
upperback 3.00338 2.53421 -1.14795
thorax 1.69136 1.26864 -0.201359
lowerneck -7.59147 3.97688 11.2479
upperneck 13.998 5.12019 -7.24442
head 5.95387 2.62705 -3.75184
rclavicle 1.74434e-014 -8.74653e-015
rhumerus -31.6447 -16.0017 -83.8248
rradius 30.7091
rwrist -17.5783
rhand -16.5991 1.1309
rfingers 7.12502
rthumb 9.62214 -28.6294
lclavicle 1.74434e-014 -8.74653e-015
lhumerus -27.4374 -6.67242 88.8218
lradius 23.491
lwrist -5.7339
lhand -18.3035 14.0754
lfingers 7.12502
lthumb 7.97742 43.9049
rfemur -8.09513 18.0236 25.6955
rtibia 30.8994
rfoot -33.5832 -28.8986
rtoes -12.433
lfemur -7.42551 -18.6917 -24.1386
ltibia 31.1738
lfoot -31.5629 28.7202
ltoes 4.42105
648
root 21.9706 15.2796 -4.5453 316.566 89.5729 -42.6635
lowerback 2.40758 1.84272 -1.81442
upperback 3.01439 2.50613 -1.13038
thorax 1.71711 1.2536 -0.164883
lowerneck -7.36656 3.94033 11.6078
upperneck 13.6481 5.10721 -7.77186
head 5.82564 2.60267 -3.98463
rclavicle 1.59028e-014 1.07344e-014
rhumerus -31.4753 -16.1311 -83.7552
rradius 30.6718
rwrist -18.0259
rhand -17.355 0.929936
rfingers 7.12502
rthumb 8.89279 -28.8627
lclavicle 1.59028e-014 1.07344e-014
lhumerus -27.2217 -7.43725 89.2543
lradius 23.7093
lwrist -5.45973
lhand -18.3459 14.059
lfingers 7.12502
lthumb 7.93651 43.89
rfemur -8.08538 18.0066 25.6989
rtibia 30.8789
rfoot -33.6423 -28.9692
rtoes -12.3652
lfemur -7.4754 -18.6473 -24.1103
ltibia 31.1904
lfoot -31.4196 28.6325
ltoes 4.48149
649
root 21.969 15.2798 -4.55014 303.202 89.6364 -56.0249
lowerback 2.36864 1.83591 -1.80788
upperback 3.02796 2.49862 -1.12549
thorax 1.753 1.24968 -0.161745
lowerneck -7.29691 3.90738 11.7713
upperneck 13.4598 5.07513 -8.02985
head 5.76159 2.57657 -4.09789
rclavicle 7.65321e-015 -1.07344e-014
rhumerus -31.3103 -16.0681 -83.7575
rradius 30.6653
rwrist -18.3984
rhand -18.0386 0.765967
rfingers 7.12502
rthumb 8.23312 -29.0536
lclavicle 7.65321e-015 -1.07344e-014
lhumerus -26.9996 -8.14665 89.6732
lradius 23.9452
lwrist -5.18008
lhand -18.3255 14.1321
lfingers 7.12502
lthumb 7.95621 43.9623
rfemur -8.06919 17.9792 25.6957
rtibia 30.8659
rfoot -33.6969 -29.0173
rtoes -12.2814
lfemur -7.50448 -18.6437 -24.1049
ltibia 31.2022
lfoot -31.3169 28.5898
ltoes 4.31427
650
root 21.9678 15.2796 -4.55597 288.626 89.6683 -70.5939
lowerback 2.32843 1.8402 -1.77338
upperback 3.04643 2.50668 -1.13232
thorax 1.79619 1.25426 -0.186186
lowerneck -7.41096 3.8827 11.7076
upperneck 13.4541 5.02607 -7.9753
head 5.77146 2.54988 -4.0722
rclavicle 1.98785e-015 -3.97569e-016
rhumerus -31.1482 -15.8514 -83.8247
rradius 30.6903
rwrist -18.6624
rhand -18.5604 0.775441
rfingers 7.12502
rthumb 7.72942 -29.0633
lclavicle 1.98785e-015 -3.97569e-016
lhumerus -26.7723 -8.8005 90.073
lradius 24.2054
lwrist -4.86558
lhand -18.2332 14.2926
lfingers 7.12502
lthumb 8.04531 44.1195
rfemur -8.04807 17.9537 25.6907
rtibia 30.8595
rfoot -33.7464 -29.0576
rtoes -12.1842
lfemur -7.51649 -18.6736 -24.1166
ltibia 31.2102
lfoot -31.25 28.5805
ltoes 3.92367
